<?xml version="1.0"?>
<svg id="Layer_2" data-name="Layer 2" xmlns="http://www.w3.org/2000/svg" viewBox="0 0 290.26 347.48">
  <defs>
    
  </defs>
  <g id="Layer_1-2" data-name="Layer 1">
    <g>
      <path fill="#e9e7e1" d="m7.26,319.95V44.2h8.3c.17-2.01.56-3.99,1.16-5.95.15-.44.27-.87.44-1.31H0v290.26h162.54c-1.98-2.3-4.11-4.72-6.44-7.26H7.26Z"></path>
      <path fill="#e9e7e1" d="m187.65,44.2h95.35v275.75h-40.65c-1.16,2.4-2.4,4.81-3.68,7.26h51.58V36.95h-114.76c4.09,2.3,8.15,4.72,12.15,7.26Z"></path>
      <path fill="#e9e7e1" d="m217.63,95.56c-27.46-30.83-63.06-47.17-99.45-64.43C92.69,19.02,75.04,7.23,66.75,1.25c-3.04-2.19-7.27-1.43-9.34,1.69-5.7,8.55-16.05,25.36-21.05,41.41-.84,2.71.14,5.64,2.44,7.31,5.49,4,16.91,11.9,32.87,20.86-25.36,38.94-38.6,120.18,35.59,176.48,68.34,51.87,89.28,88.25,93.9,97.67.5,1.02,1.94,1.08,2.54.11,33.88-54.08,43.54-91.21,45.7-146.48,1.2-30.67-4.3-73.93-31.76-104.76Zm-82.31,105.13c-9.69-8.61-19.34-18.28-28.67-29.89-29.14-36.29-31.58-70.91-27.98-91.57,10.09,6.02,37.44,24.45,49.08,53.4,9.87,24.54,10.25,49.61,7.57,68.06Zm83.58,77.38c-20.82-31.78-49.72-48.35-78.75-73.16,15.09-27.2,24.39-55.57,22.61-83.9,7.89,5.79,15.32,12.2,23.01,19.86,23.69,23.63,34.2,58.2,36.76,84.9,1.22,12.75,1.36,35.96-3.62,52.3Z"></path>
    </g>
  </g>
</svg>